<?xml version="1.0" encoding="utf-8"?>
<!-- Generator: Adobe Illustrator 24.2.1, SVG Export Plug-In . SVG Version: 6.00 Build 0)  -->
<svg version="1.1" xmlns="http://www.w3.org/2000/svg" xmlns:xlink="http://www.w3.org/1999/xlink" x="0px" y="0px"
	 viewBox="0 0 1000 1000" style="enable-background:new 0 0 1000 1000;" xml:space="preserve">
<style type="text/css">
	.st0{fill:#FFFFFF;}
	.st1{fill:#DD0A41;stroke:#DD0A41;stroke-width:60;stroke-miterlimit:10;}
	.st2{display:none;}
	.st3{display:inline;fill:#DD0A41;stroke:#DD0A41;stroke-width:60;stroke-miterlimit:10;}
	.st4{fill:#058EE2;}
	.st5{display:none;enable-background:new    ;}
	.st6{font-family:'Arial-BoldMT';}
	.st7{font-size:5px;}
	.st8{display:none;fill:#FFFFFF;}
</style>
<g id="Layer_4">
	<path class="st0" d="M40.6,769.2c-21.4-60-44.2-148.9-40.6-257C2.2,446.6,5.4,350,65.7,246.9C128.9,138.7,218,86.7,251.2,67.8
		C370.7,0,482.4-0.4,525.2,0C672,1.3,784.3,61.9,801.3,74.3c2.4,1.7,15.1,11.4,34.5,19.4c12.7,5.2,19.6,8.1,28,8.6
		c31.1,2,91-29.8,114.7-24.1c2.9,0.7,5.9,1.5,6.8,3.8c2.8,7.9-24.6,24.3-28.7,26.8c-47.9,29.9-139,189.7-185.5,254.6
		C744.2,400.9,650.6,465,463.3,593.3c-52.1,35.7-110.4,74.2-190.5,108.8c-58.9,25.4-108.6,39.6-129.4,45.3
		C104.1,758,69.2,764.8,40.6,769.2z"/>
</g>
<g id="Layer_1">
	<g id="Layer_2_1_">
		<g transform="translate(0,-284.29998)">
			<path class="st1" d="M766.4,402.3c-5.7-16.5-23.7-25.4-40.2-19.7c-14.9,5.1-23.8,20.4-20.8,35.9c3,15.8,0.3,32.1-7.8,46.1
				L679,496.9c-5.6,9.8-14,17.8-23.9,23c-7.7,4-15.8,7-24.2,9c-0.7-0.3-1.5-0.6-2.2-0.9c-3.8,0.8-7.7,0.7-11.3-0.6
				c-17.8-6.8-36.7-10-55-15c-3.6-1-6.7-2.7-9.3-4.9c-1.6-0.2-3.2-0.4-4.9-0.6c-6.3-5.9-11.8-12.5-16.4-19.9
				c-6.1-9.5-9.3-20.6-9.3-31.9v-37.3c0-16.1,5.8-31.6,16.2-43.8c11.5-13.2,10.1-33.2-3.1-44.7c-2.6-2.3,5.9,4.8,0,0
				c-3.1-2.5-22.1-11.3-20.3-7.7l0,0c-17.5-0.2-31.7,13.9-31.9,31.3c-0.1,7.7,2.7,15.2,7.8,21c10.5,12.2,16.3,27.6,16.3,43.8v37.3
				c0,11.3-3.2,22.3-9.3,31.9c-4.7,7.3-10.2,14-16.4,19.9c-28.3,3.2-56,10.6-82.1,22c-8.4-2-16.5-5-24.1-9
				c-10-5.2-18.3-13.2-23.9-23l-18.6-32.3c-8.1-13.9-10.8-30.2-7.8-46.1c3.3-17.1-7.9-33.7-25-37.1c-17.1-3.3-33.7,7.9-37,25
				c-3,15.5,5.9,30.9,20.8,36c15.2,5.2,27.9,15.8,36,29.6l18.6,32.3c5.7,9.8,8.5,20.9,8.1,32.2c-0.4,8.6-1.8,17.2-4.3,25.5
				c-22.8,16.9-43,37.1-59.9,59.9c-8.3,2.5-16.8,4-25.5,4.3c-11.3,0.5-22.4-2.3-32.2-7.9l-32.5-18.6c-13.9-8.1-24.4-20.8-29.6-36
				c-5.6-16.5-23.7-25.4-40.2-19.7c-16.5,5.6-25.4,23.7-19.7,40.2c5.1,14.9,20.4,23.8,36,20.8c15.8-3.1,32.1-0.4,46.1,7.6l32.3,18.7
				c9.8,5.6,17.8,14,23.1,23.9c4,7.7,7,15.8,8.9,24.2c0,0,0,0,0,0c8.9,24-3.8,54.6-21.2,74.7c-0.3,2.2-0.6,4.4-0.9,6.6
				c-5.9,6.3-12.5,11.8-19.9,16.4c-9.5,6.1-20.6,9.2-31.8,9.2h-37.4c-16.1,0-31.6-5.8-43.7-16.3c-13.2-11.5-33.2-10.1-44.7,3.1
				c-11.5,13.2-10.1,33.2,3.1,44.7c11.9,10.4,29.6,10.4,41.5,0c12.2-10.5,27.6-16.3,43.7-16.3h37.4c11.3,0,22.3,3.2,31.8,9.3
				c7.3,4.7,14,10.2,19.9,16.5c3.2,28.2,10.6,55.9,21.9,82c-2,8.4-5,16.5-9,24.1c-5.2,10.1-13.2,18.3-23.1,23.9l-32.3,18.7
				c-14,8-19.2,10.3-37.5,11.1c-25.3,1.1-25.6-14-46.9-8.6c0,0-26.8,11.3-4,35.9c5.3,5.7,92.4-32.2,109.4-37.9
				c6.4-2.1,12.7-4.3,19.1-6.4c6.5-3.7,13.7-6.2,21.1-7.2c1.4-0.5,2.8-1,4.2-1.6c1.3-0.5,8.9-3.7,2.5-0.9
				c5.7-2.5,6.3-12.2,12.1-11.4c1.5-0.5,7.4,7.4,8.9,6.9c8.7-3.1,11.2-21.8,17.4-15.7c16.6-9.6,34.1-1.2,50.6-11.1
				c-5.3-3.6-4.9-4.2-9.5-9c-33-35.1-31.2-90.3,4-123.3c6.8-6.4,14.6-11.7,23.1-15.6c1.6-0.8,3.3-1.1,5.1-1.1
				c6.6,0,12.1,5,12.5,11.5c2.8,38.6,21.3,59,51,82.4c19.3-15.1,41.1-13,62.1-25.7c-2.9-1.4-5.8-3.1-8.5-5.1
				c-23.4-16.7-38-43.1-39.6-71.8v-0.1c-1.5-26,13.4-50.3,37.2-60.8c13.9-6.1,28.9-9.3,44.1-9.4v0c3.7,0.1,7.4,0.4,11.1,0.9
				c24.3,2.3,45,18.5,53.1,41.6c1.1,3.2,2.1,6.5,2.8,9.8c0.1-0.1,0.2-0.1,0.2-0.2c5.7-7.6,12.3-14.3,19.1-20.6c2-2.3,4-4.6,6.1-6.7
				c18.8-19.8,41-35.6,63-51.7c18.1-17.3,36.2-34.8,57.3-48.5c0.5-0.9,1-1.8,1.6-2.6c1.8-2.8,3.7-5.6,5.6-8.4
				c-15.8-19.9-34-37.6-54.4-52.7c-2.6-8.3-4-16.8-4.4-25.5c-0.5-11.3,2.3-22.4,7.9-32.2l18.7-32.3c8.1-13.9,20.8-24.4,36-29.6
				C763.3,436.8,772.1,418.9,766.4,402.3z M436.2,664.6c-0.6,0.3-1.1,0.6-1.7,0.8c-27.9,9.6-50.8,29.8-63.8,56.3
				c-2.3,4.7-7.9,6.6-12.5,4.3c-0.6-0.3-1.1-0.7-1.6-1c-24.6-19.1-29-54.5-9.9-79.1c11.1-14.3,28.4-22.3,46.5-21.8
				c19.2,0.7,36.8,11.1,46.5,27.5C442.2,656.3,440.7,662.1,436.2,664.6z M634.8,652.5c-3.5,13.4-17.2,21.4-30.6,17.9
				c-2.5-0.7-4.8-1.6-6.9-3c-18.6-11.7-39.7-18.8-61.6-21c-13.8-1.3-23.8-13.5-22.6-27.3c0.3-2.8,1-5.6,2.3-8.3
				c9.9-21,30.6-34.7,53.8-35.6c10.4-0.4,20.7,1.8,30,6.5C627.2,592.9,642.5,623.2,634.8,652.5z"/>
		</g>
		<g transform="translate(0,-284.29998)" class="st2">
			<path class="st3" d="M543.7,19.5c-17.5-0.2-31.7,13.9-31.9,31.3c-0.1,7.7,2.7,15.2,7.8,21c10.5,12.2,16.3,27.6,16.3,43.8V153
				c0,11.3-3.2,22.3-9.3,31.9c-4.7,7.3-10.2,14-16.4,19.9c-28.3,3.2-56,10.6-82.1,22c-8.4-2-16.5-5-24.1-9
				c-10-5.2-18.3-13.2-23.9-23l-18.6-32.3c-8.1-13.9-10.8-30.2-7.8-46.1c3.3-17.1-7.9-33.7-25-37c-17.1-3.3-33.7,7.9-37.1,25
				c-3,15.5,5.9,30.9,20.8,36c15.2,5.2,27.9,15.8,36,29.6l18.6,32.3c5.7,9.8,8.5,20.9,8.1,32.2c-0.4,8.6-1.8,17.2-4.3,25.5
				c-22.8,16.9-43,37.1-59.9,59.9c-8.3,2.5-16.8,4-25.5,4.3c-11.3,0.5-22.4-2.3-32.2-7.9l-32.5-18.6c-13.9-8.1-24.4-20.8-29.6-36
				c-5.6-16.5-23.7-25.4-40.2-19.7c-16.5,5.6-25.4,23.7-19.7,40.2c5.1,14.9,20.4,23.8,36,20.8c15.8-3.1,32.1-0.4,46.1,7.6l32.3,18.7
				c9.8,5.6,17.8,14,23.1,23.9c4,7.7,7,15.8,8.9,24.2c-2.6,6-4.9,12.2-7.1,18.3c-5.2,3.5-10.8,6.2-16.8,8.1c-6.9,2-14.3,2-21.2,0
				l-23.2-6.2c-9.9-2.7-18.5-8.8-24.3-17.4c-6.3-9.3-18.8-11.7-28.1-5.5c-9.3,6.3-11.7,18.8-5.5,28.1c5.6,8.4,16.6,11.3,25.6,6.8
				c9.2-4.6,19.8-5.6,29.7-3l23,6.2c7,1.8,13.4,5.7,18.2,11c4.3,4.7,7.8,9.8,10.5,15.4c-1.2,6.5-2.2,12.9-3,19.5
				c-5.9,6.3-12.5,11.8-19.9,16.4c-9.5,6.1-20.6,9.2-31.8,9.2h-37.4c-16.1,0-31.6-5.8-43.7-16.3c-13.2-11.5-33.2-10.1-44.7,3.1
				s-10.1,33.2,3.1,44.6c11.9,10.4,29.6,10.4,41.5,0c12.2-10.5,27.6-16.3,43.7-16.3h37.4c11.3,0,22.3,3.2,31.8,9.3
				c7.3,4.7,14,10.2,19.9,16.5c3.2,28.2,10.6,55.9,21.9,82c-2,8.4-5,16.5-9,24.1c-5.2,10.1-13.2,18.3-23.1,23.9L213,674.1
				c-14,8-30.3,10.6-46.1,7.6c-17.1-3.3-33.7,7.9-37.1,25c-3.3,17.1,7.9,33.7,25,37c15.5,3,30.8-5.8,35.9-20.7
				c5.2-15.2,15.7-28,29.6-36l32.5-18.6c9.8-5.6,21-8.4,32.2-7.9c8.6,0.4,17.2,1.8,25.5,4.3c3.9,5.2,8,10.4,12.3,15.4
				c0.4,6.3-0.1,12.5-1.4,18.6c-1.6,7-5.1,13.5-10.3,18.5l-16.9,16.9c-7.2,7.3-16.9,11.7-27.2,12.4c-11.1,0.8-19.6,10.4-18.9,21.5
				c0.8,11.1,10.4,19.6,21.5,18.9c10.2-0.7,18.1-8.7,18.9-18.8c0.8-10.3,5.1-20,12.4-27.2l16.9-16.9c5.1-5.1,11.6-8.6,18.6-10.3
				c6.1-1.3,12.4-1.9,18.6-1.4c4.9,4.3,10.1,8.4,15.4,12.3c2.5,8.3,4,16.8,4.3,25.4c0.5,11.3-2.3,22.5-8,32.3L348,814.7
				c-8.1,13.9-20.8,24.4-36,29.6c-16.5,5.7-25.4,23.7-19.7,40.2c5.7,16.5,23.7,25.4,40.2,19.7c14.9-5.1,23.8-20.4,20.8-36
				c-3-15.8-0.3-32.1,7.8-46.1l18.6-32.3c5.6-9.8,14-17.8,23.9-23c7.6-4,15.8-7,24.1-9c26.1,11.3,53.8,18.7,82.1,21.9
				c6.3,5.9,11.8,12.6,16.4,20c6.1,9.5,9.3,20.6,9.4,31.8v37.3c0,16.1-5.8,31.6-16.3,43.7c-11.5,13.1-10.2,33.2,3,44.6
				c13.1,11.5,33.2,10.2,44.7-3c10.4-11.9,10.4-29.6,0-41.6c-10.5-12.2-16.3-27.6-16.3-43.7v-37.3c0-11.3,3.2-22.3,9.3-31.8
				c4.7-7.3,10.2-14,16.4-20c6.6-0.8,13-1.7,19.5-2.9c5.6,2.8,10.7,6.4,15.3,10.5c5.3,4.8,9.2,11.2,11.1,18.1l6.2,23.1
				c2.7,9.9,1.6,20.5-2.8,29.7c-4.9,10.1-0.8,22.1,9.3,27.1c10.1,4.9,22.1,0.8,27.1-9.3c4.5-9.1,1.5-20-6.8-25.7v-0.9
				c-8.5-5.7-14.7-14.3-17.4-24.3l-6.2-23.1c-1.6-7-1.2-14.4,1.1-21.3c1.8-6,4.6-11.7,8-16.8c6.2-2.2,12.3-4.6,18.3-7.1
				c8.5,2,16.5,5,24.2,9c10,5.2,18.3,13.2,23.9,23l18.6,32.3c8.1,13.9,10.8,30.3,7.8,46.1c-3.3,17.1,7.9,33.7,25,37s33.7-7.9,37-25
				c3-15.5-5.9-30.9-20.8-35.9c-15.2-5.2-27.9-15.8-36-29.6l-18.7-32.3c-5.6-9.8-8.4-21-7.9-32.3c0.4-8.6,1.9-17.2,4.4-25.5
				c22.8-16.9,43-37.1,60-59.9c8.3-2.5,16.8-3.9,25.4-4.3c11.3-0.5,22.5,2.2,32.3,7.8l32.3,18.7c14,8,24.5,20.8,29.7,36
				c5.7,16.5,23.7,25.3,40.2,19.6c16.5-5.7,25.3-23.7,19.6-40.2c-5.1-14.9-20.5-23.8-36-20.7c-15.8,3.1-32.1,0.5-46.1-7.6
				l-32.3-18.7c-9.8-5.7-17.8-14-23-23.9c-4-7.7-7-15.8-9-24.2c2.6-6,4.9-12.1,7.1-18.2c5.2-3.5,10.9-6.2,16.9-8.1
				c6.9-2,14.3-2,21.3,0l23,6.2c9.9,2.7,18.5,8.8,24.2,17.4c6.2,9.3,18.8,11.8,28,5.6c9.3-6.2,11.8-18.8,5.6-28
				c-5.6-8.4-16.5-11.4-25.6-7c-9.2,4.6-19.8,5.6-29.7,2.9l-23.1-6.2c-7-1.9-13.3-5.7-18.2-11c-4.2-4.7-7.7-9.8-10.5-15.4
				c1.2-6.5,2.2-12.9,2.9-19.5c5.9-6.3,12.6-11.9,19.9-16.5c9.5-6.1,20.5-9.3,31.8-9.3H921c16.1,0,31.5,5.8,43.7,16.3
				c13.2,11.5,33.2,10.1,44.6-3.1c11.5-13.2,10.1-33.2-3.1-44.6c-11.9-10.4-29.6-10.4-41.5,0C952.6,478.2,937,484,921,484h-37.4
				c-11.3,0-22.3-3.2-31.8-9.2c-7.3-4.7-14-10.2-19.9-16.4c-0.8-6.6-1.7-13-2.9-19.5c2.8-5.6,6.3-10.8,10.5-15.4
				c4.9-5.3,11.2-9.1,18.2-11l23.1-6.2c10-2.7,20.5-1.5,29.7,3c10.1,4.8,22.1,0.6,27-9.5c4.8-10.1,0.6-22.1-9.5-27
				c-9.1-4.4-20-1.4-25.6,7c-5.7,8.5-14.3,14.7-24.2,17.4l-23,6.2c-6.9,2-14.3,2-21.3,0c-6-1.9-11.7-4.6-16.9-8.1
				c-2.2-6.2-4.6-12.4-7.1-18.3c2-8.5,5-16.5,9-24.2c5.2-10,13.2-18.2,23-23.9l32.3-18.7c14-8.1,30.3-10.7,46.1-7.6
				c17.1,3.4,33.7-7.8,37.1-24.9c3.4-17.1-7.8-33.7-24.9-37.1c-15.5-3-30.9,5.8-36,20.8c-5.2,15.2-15.8,28-29.7,36l-32.3,18.7
				c-9.8,5.6-21,8.4-32.3,7.9c-8.6-0.4-17.1-1.8-25.4-4.3c-16.9-22.8-37.1-43-60-59.9c-2.6-8.3-4-16.8-4.4-25.5
				c-0.5-11.3,2.3-22.4,7.9-32.2l18.7-32.3c8.1-13.9,20.8-24.4,36-29.6c16.5-5.7,25.4-23.7,19.7-40.2c-5.7-16.5-23.7-25.4-40.2-19.7
				c-14.9,5.1-23.8,20.4-20.8,35.9c3,15.8,0.3,32.1-7.8,46.1l-18.6,32.3c-5.6,9.8-14,17.8-23.9,23c-7.7,4-15.8,7-24.2,9
				c-6-2.6-12.2-4.9-18.3-7.1c-3.4-5.2-6.1-10.9-8-16.8c-2.4-6.8-2.8-14.3-1.1-21.3l6.2-23.1c2.7-10,8.8-18.5,17.4-24.3
				c9.3-6.3,11.7-18.8,5.5-28.1c-6.2-9.3-18.8-11.7-28.1-5.5c-8.4,5.6-11.3,16.6-6.8,25.6c4.5,9.2,5.5,19.8,2.9,29.7l-6.2,23.1
				c-1.9,7-5.7,13.3-11.1,18.1c-4.6,4.3-9.8,7.8-15.4,10.5c-6.5-1.2-12.9-2.2-19.5-2.9c-6.3-5.9-11.8-12.5-16.4-19.9
				c-6.1-9.5-9.3-20.6-9.3-31.9v-37.3c0-16.1,5.8-31.6,16.2-43.8c11.5-13.2,10.1-33.2-3.1-44.7c-5.6-4.9-12.8-7.7-20.3-7.8
				L543.7,19.5z M597.5,272.7c10.4-0.4,20.7,1.8,30,6.5c28,11.3,43.2,41.6,35.5,70.8c-3.5,13.4-17.2,21.4-30.6,17.9
				c-2.5-0.7-4.8-1.6-6.9-3c-18.6-11.7-39.7-18.8-61.6-21c-13.8-1.3-23.8-13.5-22.6-27.3c0.3-2.8,1-5.6,2.3-8.3
				C553.5,287.3,574.3,273.6,597.5,272.7z M421.3,321.7c19.2,0.7,36.8,11.1,46.5,27.5c2.7,4.5,1.1,10.3-3.3,12.8
				c-0.6,0.3-1.1,0.6-1.7,0.8c-27.9,9.6-50.8,29.8-63.8,56.3c-2.3,4.7-7.9,6.6-12.5,4.3c-0.6-0.3-1.1-0.7-1.6-1
				c-24.6-19.1-29-54.5-9.9-79.1C386,329.2,403.2,321.1,421.3,321.7L421.3,321.7z M551.3,398.9c3.7,0.1,7.4,0.4,11.1,0.9
				c24.3,2.3,45,18.5,53.1,41.6c13.8,39.1-2.3,82.5-38.2,103.3c-21.3,12.3-47.7,11-67.6-3.2c-23.4-16.7-38-43.1-39.6-71.8v-0.1
				c-1.5-26,13.4-50.4,37.2-60.8c13.9-6.1,28.9-9.3,44.1-9.4L551.3,398.9L551.3,398.9z M717.2,444.9c5.2-0.2,10.5,0.9,15.2,3.2
				c38.3,19.2,53.8,65.7,34.6,103.9c-0.3,0.6-0.6,1-0.9,1.6c-14.9,34.7-53.2,52.7-89.5,42.3c-16.6-4.8-26.2-22.1-21.5-38.8
				c0.9-3,2.2-6,4-8.5c15.2-22.9,24.8-49,28.1-76.4C689.2,457,701.9,445.5,717.2,444.9L717.2,444.9z M392.5,478.1
				c6.6,0,12.1,5,12.5,11.5c3.4,48.1,32.2,90.7,75.4,112.1c6.2,3,8.8,10.5,5.8,16.7c-0.7,1.3-1.5,2.6-2.7,3.6
				c-35.1,33-90.3,31.2-123.3-4c-33-35.2-31.2-90.3,4-123.3c6.8-6.4,14.6-11.7,23.1-15.6C389.1,478.5,390.8,478,392.5,478.1
				L392.5,478.1z M561.4,625.8c17.5-0.8,35.1,1,52.1,5.5c8.9,2.1,17.3,6,24.5,11.6c13.8,10.5,16.4,30.1,5.9,43.9
				c-0.6,0.8-1.1,1.4-1.8,2.1c-10.6,11.7-25.4,19.1-41.1,20.6c-21.2,3.9-43.1,0.2-61.8-10.4c-7.1-4.1-12.4-10.7-14.7-18.6
				c-3.1-11-2.8-22.8,1.1-33.5c4.1-11.4,14.4-19.3,26.4-20.5c3.1-0.4,6.3-0.7,9.4-0.9L561.4,625.8z"/>
		</g>
	</g>
	<g id="Layer_2">
		<polygon class="st1" points="334.7,391.2 387.8,313.8 456.1,400 		"/>
		<polygon class="st1" points="503,343.9 590.6,262.6 646.7,415.1 		"/>
		<polygon class="st1" points="300.8,500 456.1,576.8 334.7,648.2 		"/>
	</g>
	<g id="Layer_3">
		<path class="st0" d="M427.6,590c-42.5-14.1-59.3-57.3-62-64.3c-21.1-54.3,7.5-103.9,12.9-113.3c31.8-55,88.3-67.8,97.1-69.6
			c12.8-2.7,51.8-10.2,92.2,11.3c36.5,19.4,52.3,50.8,56.6,59.9c6,12.4,13.9,28.8,12.9,48.5C634.5,521,556.2,557,525.7,571
			C489.1,587.8,460.5,601,427.6,590z"/>
	</g>
	<g id="Layer_1_1_">
		<g>
			<path class="st4" d="M705.7,224.4l74.2,55.4c-66.9,73.9-165.6,173.7-288,266.1C280.4,705.9,117.8,753,40.6,769.2
				c90.5-6.3,278.6-34.3,508.8-180.4c133-84.4,236.4-180.7,305.6-252.9l71.2,53.3L985.3,82L705.7,224.4z"/>
			<path class="st4" d="M695.5,517.9v471.7H911v-567l-56.6-40.9C803.1,431.1,750,476.7,695.5,517.9z"/>
			<path class="st4" d="M376.5,703.2v286.4H592V590c-7.6,4.9-15.3,9.7-23,14.4C501.7,645.8,437.2,678,376.5,703.2z"/>
			<path class="st4" d="M57.6,989.7h215.6v-249c-83.7,26-156.7,38.4-215.5,43.6v205.4L57.6,989.7L57.6,989.7z"/>
		</g>
		<text transform="matrix(1 0 0 1 0 765)" class="st5 st6 st7">Created by Serhii Smirnov</text>
		<text transform="matrix(1 0 0 1 0 770)" class="st5 st6 st7">from the Noun Project</text>
	</g>
	<polygon class="st8" points="72.1,749.7 122.8,742.4 215.7,721.5 212.4,740.7 89.9,770 	"/>
</g>
</svg>
