<?xml version="1.0" encoding="utf-8"?>
<!-- Generator: Adobe Illustrator 24.2.1, SVG Export Plug-In . SVG Version: 6.00 Build 0)  -->
<svg version="1.1" xmlns="http://www.w3.org/2000/svg" xmlns:xlink="http://www.w3.org/1999/xlink" x="0px" y="0px"
	 viewBox="0 0 1000 1000" style="enable-background:new 0 0 1000 1000;" xml:space="preserve">
<style type="text/css">
	.st0{fill:#DD0A41;}
	.st1{display:none;}
	.st2{display:inline;fill:#DD0A41;}
	.st3{fill:#058EE2;}
	.st4{display:none;enable-background:new    ;}
	.st5{font-family:'Arial-BoldMT';}
	.st6{font-size:5px;}
</style>
<g id="Layer_2">
	<g transform="translate(0,-284.29998)">
		<path class="st0" d="M763.9,384.2c-6-17.4-24.9-26.7-42.3-20.7c-15.7,5.4-25.1,21.5-21.9,37.8c3.2,16.6,0.3,33.8-8.2,48.5
			l-19.6,34c-5.9,10.3-14.7,18.7-25.2,24.2c-8.1,4.2-16.6,7.4-25.5,9.5c-6.3-2.7-12.8-5.2-19.3-7.5c-3.6-5.5-6.4-11.5-8.4-17.7
			c-2.5-7.2-2.9-15-1.2-22.4l6.5-24.3c2.8-10.5,9.3-19.5,18.3-25.6c9.8-6.6,12.3-19.8,5.8-29.6c-6.6-9.8-19.8-12.3-29.6-5.8
			c-8.8,5.9-11.9,17.5-7.2,27c4.7,9.7,5.8,20.8,3,31.3l-6.5,24.3c-2,7.4-6,14-11.7,19.1c-4.8,4.5-10.3,8.2-16.2,11.1
			c-6.8-1.3-13.6-2.3-20.5-3.1c-6.6-6.2-12.4-13.2-17.3-20.9c-6.4-10-9.8-21.7-9.8-33.6v-39.3c0-16.9,6.1-33.3,17.1-46.1
			c12.1-13.9,10.6-34.9-3.3-47c-5.9-5.2-13.5-8.1-21.4-8.2l0,0.1c-18.4-0.2-33.4,14.6-33.6,33c-0.1,8.1,2.8,16,8.2,22.1
			c11.1,12.8,17.2,29.1,17.2,46.1v39.3c0,11.9-3.4,23.5-9.8,33.6c-4.9,7.7-10.7,14.7-17.3,20.9c-29.8,3.4-58.9,11.2-86.4,23.2
			c-8.8-2.1-17.4-5.3-25.4-9.5c-10.5-5.5-19.3-13.9-25.2-24.2l-19.6-34c-8.5-14.6-11.4-31.8-8.2-48.5c3.5-18-8.3-35.5-26.3-39
			c-18-3.5-35.5,8.3-39,26.3c-3.2,16.3,6.2,32.5,21.9,37.9c16,5.5,29.4,16.6,37.9,31.2l19.6,34c6,10.3,8.9,22,8.5,33.9
			c-0.4,9.1-1.9,18.1-4.5,26.8c-24,17.8-45.3,39.1-63.1,63.1c-8.7,2.6-17.7,4.2-26.8,4.5c-11.9,0.5-23.6-2.4-33.9-8.3l-34.2-19.6
			c-14.6-8.5-25.7-21.9-31.2-37.9c-5.9-17.4-24.9-26.7-42.3-20.7c-17.4,5.9-26.7,24.9-20.7,42.3c5.4,15.7,21.5,25.1,37.9,21.9
			c16.6-3.3,33.8-0.4,48.5,8l34,19.7c10.3,5.9,18.7,14.7,24.3,25.2c4.2,8.1,7.4,16.6,9.4,25.5c-2.7,6.3-5.2,12.8-7.5,19.3
			c-5.5,3.7-11.4,6.5-17.7,8.5c-7.3,2.1-15,2.1-22.3,0l-24.4-6.5c-10.4-2.8-19.5-9.3-25.6-18.3c-6.6-9.8-19.8-12.3-29.6-5.8
			c-9.8,6.6-12.3,19.8-5.8,29.6c5.9,8.8,17.5,11.9,27,7.2c9.7-4.8,20.8-5.9,31.3-3.2l24.2,6.5c7.4,1.9,14.1,6,19.2,11.6
			c4.5,4.9,8.2,10.3,11.1,16.2c-1.3,6.8-2.3,13.6-3.2,20.5c-6.2,6.6-13.2,12.4-20.9,17.3c-10,6.4-21.7,9.7-33.5,9.7h-39.4
			c-16.9,0-33.3-6.1-46-17.2c-13.9-12.1-34.9-10.6-47,3.3c-12.1,13.9-10.6,34.9,3.3,47c12.5,10.9,31.2,10.9,43.7,0
			c12.8-11.1,29.1-17.2,46-17.2h39.4c11.9,0,23.5,3.4,33.5,9.8c7.7,4.9,14.7,10.7,20.9,17.4c3.4,29.7,11.2,58.8,23.1,86.3
			c-2.1,8.8-5.3,17.4-9.5,25.4c-5.5,10.6-13.9,19.3-24.3,25.2l-34,19.7c-14.7,8.4-31.9,11.2-48.5,8c-18-3.5-35.5,8.3-39,26.3
			c-0.7,3.3-0.8,6.7-0.4,9.9c3.2-0.5,6.4-1.1,9.6-1.6c3.1-1.2,6.2-2.4,9.4-3.4c12.6-4.3,25.6-7,38.3-10.9c10-3.1,20-6.2,30.1-9.1
			c2.6-2.1,5.4-4,8.3-5.7l34.2-19.6c10.3-5.9,22.1-8.8,33.9-8.3c9.1,0.4,18.1,1.9,26.8,4.5c0.9,1.2,1.8,2.3,2.7,3.5
			c1.1-1,2.3-1.9,3.7-2.6c20.7-11.8,41-24.3,61.5-36.5c-5.6-3.8-10.8-8.2-15.6-13.3c-34.7-37-32.8-95.1,4.2-129.8
			c7.2-6.7,15.4-12.3,24.3-16.4c1.7-0.8,3.5-1.2,5.4-1.2l0,0c6.9,0,12.7,5.3,13.2,12.1c2.9,40.6,22.9,77.5,54.2,102.1
			c20.3-15.9,42.7-29.1,64.9-42.4c-3.1-1.5-6.1-3.3-9-5.4c-24.6-17.6-40-45.4-41.7-75.6v-0.1c-1.6-27.4,14.1-53,39.2-64
			c14.6-6.4,30.4-9.8,46.4-9.9V699c3.9,0.1,7.8,0.4,11.7,0.9c25.6,2.4,47.4,19.5,55.9,43.8c1.2,3.4,2.2,6.8,2.9,10.3
			c0.1-0.1,0.2-0.1,0.2-0.2c6-8,12.9-15.1,20.1-21.7c2.1-2.4,4.2-4.8,6.4-7.1c19.8-20.8,43.2-37.5,66.3-54.4
			c19.1-18.2,38.1-36.6,60.3-51c0.5-0.9,1.1-1.9,1.7-2.7c1.9-3,3.9-5.9,5.9-8.8c-16.6-20.9-35.8-39.6-57.3-55.5
			c-2.7-8.7-4.2-17.7-4.6-26.8c-0.5-11.9,2.4-23.6,8.3-33.9l19.7-34c8.5-14.6,21.9-25.7,37.9-31.2
			C760.6,420.5,769.9,401.6,763.9,384.2z M416.3,660.3c-0.6,0.3-1.2,0.6-1.8,0.8c-29.4,10.1-53.5,31.4-67.2,59.3
			c-2.4,4.9-8.3,6.9-13.2,4.5c-0.6-0.3-1.2-0.7-1.7-1.1c-25.9-20.1-30.5-57.4-10.4-83.3c11.7-15,29.9-23.5,48.9-22.9l0,0
			c20.2,0.7,38.7,11.7,49,29C422.6,651.5,421,657.6,416.3,660.3z M625.3,647.5c-3.7,14.1-18.1,22.5-32.2,18.8
			c-2.6-0.7-5-1.7-7.3-3.2c-19.6-12.3-41.8-19.8-64.8-22.1c-14.5-1.4-25.1-14.2-23.8-28.7c0.3-3,1.1-5.9,2.4-8.7
			c10.4-22.1,32.2-36.5,56.6-37.5c10.9-0.4,21.8,1.9,31.6,6.8C617.3,584.8,633.4,616.7,625.3,647.5z"/>
	</g>
	<g transform="translate(0,-284.29998)" class="st1">
		<path class="st2" d="M529.4-18.8c-18.4-0.2-33.4,14.6-33.6,33c-0.1,8.1,2.8,16,8.2,22.1c11.1,12.8,17.2,29.1,17.2,46.1v39.3
			c0,11.9-3.4,23.5-9.8,33.6c-4.9,7.7-10.7,14.7-17.3,20.9c-29.8,3.4-58.9,11.2-86.4,23.2c-8.8-2.1-17.4-5.3-25.4-9.5
			c-10.5-5.5-19.3-13.9-25.2-24.2l-19.6-34c-8.5-14.6-11.4-31.8-8.2-48.5c3.5-18-8.3-35.5-26.3-39c-18-3.5-35.5,8.3-39,26.3
			c-3.2,16.3,6.2,32.5,21.9,37.9c16,5.5,29.4,16.6,37.9,31.2l19.6,34c6,10.3,8.9,22,8.5,33.9c-0.4,9.1-1.9,18.1-4.5,26.8
			c-24,17.8-45.3,39.1-63.1,63.1c-8.7,2.6-17.7,4.2-26.8,4.5c-11.9,0.5-23.6-2.4-33.9-8.3l-34.2-19.6c-14.6-8.5-25.7-21.9-31.2-37.9
			c-5.9-17.4-24.9-26.7-42.3-20.7c-17.4,5.9-26.7,24.9-20.7,42.3c5.4,15.7,21.5,25.1,37.9,21.9c16.6-3.3,33.8-0.4,48.5,8l34,19.7
			c10.3,5.9,18.7,14.7,24.3,25.2c4.2,8.1,7.4,16.6,9.4,25.5c-2.7,6.3-5.2,12.8-7.5,19.3c-5.5,3.7-11.4,6.5-17.7,8.5
			c-7.3,2.1-15,2.1-22.3,0l-24.4-6.5c-10.4-2.8-19.5-9.3-25.6-18.3c-6.6-9.8-19.8-12.3-29.6-5.8c-9.8,6.6-12.3,19.8-5.8,29.6
			c5.9,8.8,17.5,11.9,27,7.2c9.7-4.8,20.8-5.9,31.3-3.2l24.2,6.5c7.4,1.9,14.1,6,19.2,11.6c4.5,4.9,8.2,10.3,11.1,16.2
			c-1.3,6.8-2.3,13.6-3.2,20.5c-6.2,6.6-13.2,12.4-20.9,17.3c-10,6.4-21.7,9.7-33.5,9.7h-39.4c-16.9,0-33.3-6.1-46-17.2
			c-13.9-12.1-34.9-10.6-47,3.3s-10.6,34.9,3.3,47c12.5,10.9,31.2,10.9,43.7,0c12.8-11.1,29.1-17.2,46-17.2h39.4
			c11.9,0,23.5,3.4,33.5,9.8c7.7,4.9,14.7,10.7,20.9,17.4c3.4,29.7,11.2,58.8,23.1,86.3c-2.1,8.8-5.3,17.4-9.5,25.4
			c-5.5,10.6-13.9,19.3-24.3,25.2l-34,19.7c-14.7,8.4-31.9,11.2-48.5,8c-18-3.5-35.5,8.3-39,26.3c-3.5,18,8.3,35.5,26.3,39
			c16.3,3.2,32.4-6.1,37.8-21.8c5.5-16,16.5-29.5,31.2-37.9l34.2-19.6c10.3-5.9,22.1-8.8,33.9-8.3c9.1,0.4,18.1,1.9,26.8,4.5
			c4.1,5.5,8.4,10.9,12.9,16.2c0.4,6.6-0.1,13.2-1.5,19.6c-1.7,7.4-5.4,14.2-10.8,19.5l-17.8,17.8c-7.6,7.7-17.8,12.3-28.6,13.1
			c-11.7,0.8-20.6,10.9-19.9,22.6c0.8,11.7,10.9,20.6,22.6,19.9c10.7-0.7,19.1-9.2,19.9-19.8c0.8-10.8,5.4-21,13.1-28.6l17.8-17.8
			c5.4-5.4,12.2-9.1,19.6-10.8c6.4-1.4,13-2,19.6-1.5c5.2,4.5,10.6,8.8,16.2,12.9c2.6,8.7,4.2,17.7,4.5,26.7
			c0.5,11.9-2.4,23.7-8.4,34l-19.7,34c-8.5,14.6-21.9,25.7-37.9,31.2c-17.4,6-26.7,24.9-20.7,42.3c6,17.4,24.9,26.7,42.3,20.7
			c15.7-5.4,25.1-21.5,21.9-37.9c-3.2-16.6-0.3-33.8,8.2-48.5l19.6-34c5.9-10.3,14.7-18.7,25.2-24.2c8-4.2,16.6-7.4,25.4-9.5
			c27.5,11.9,56.6,19.7,86.4,23.1c6.6,6.2,12.4,13.3,17.3,21c6.4,10,9.8,21.7,9.9,33.5v39.3c0,16.9-6.1,33.3-17.2,46
			c-12.1,13.8-10.7,34.9,3.2,47c13.8,12.1,34.9,10.7,47-3.2c10.9-12.5,10.9-31.2,0-43.8c-11.1-12.8-17.2-29.1-17.2-46v-39.3
			c0-11.9,3.4-23.5,9.8-33.5c4.9-7.7,10.7-14.7,17.3-21c6.9-0.8,13.7-1.8,20.5-3c5.9,2.9,11.3,6.7,16.1,11.1
			c5.6,5.1,9.7,11.8,11.7,19.1l6.5,24.3c2.8,10.4,1.7,21.6-3,31.3c-5.2,10.6-0.8,23.3,9.8,28.5c10.6,5.2,23.3,0.8,28.5-9.8
			c4.7-9.6,1.6-21.1-7.2-27V855c-9-6-15.5-15.1-18.3-25.6l-6.5-24.3c-1.7-7.4-1.3-15.2,1.2-22.4c1.9-6.3,4.8-12.3,8.4-17.7
			c6.5-2.3,13-4.8,19.3-7.5c8.9,2.1,17.4,5.3,25.5,9.5c10.5,5.5,19.3,13.9,25.2,24.2l19.6,34c8.5,14.6,11.4,31.9,8.2,48.5
			c-3.5,18,8.3,35.5,26.3,39c18,3.5,35.5-8.3,39-26.3c3.2-16.3-6.2-32.5-21.9-37.8c-16-5.5-29.4-16.6-37.9-31.2l-19.7-34
			c-5.9-10.3-8.8-22.1-8.3-34c0.4-9.1,2-18.1,4.6-26.8c24-17.8,45.3-39.1,63.2-63.1c8.7-2.6,17.7-4.1,26.7-4.5
			c11.9-0.5,23.7,2.3,34,8.2l34,19.7c14.7,8.4,25.8,21.9,31.3,37.9c6,17.4,24.9,26.6,42.3,20.6s26.6-24.9,20.6-42.3
			c-5.4-15.7-21.6-25-37.9-21.8c-16.6,3.3-33.8,0.5-48.5-8l-34-19.7c-10.3-6-18.7-14.7-24.2-25.2c-4.2-8.1-7.4-16.6-9.5-25.5
			c2.7-6.3,5.2-12.7,7.5-19.2c5.5-3.7,11.5-6.5,17.8-8.5c7.3-2.1,15.1-2.1,22.4,0l24.2,6.5c10.4,2.8,19.5,9.3,25.5,18.3
			c6.5,9.8,19.8,12.4,29.5,5.9c9.8-6.5,12.4-19.8,5.9-29.5c-5.9-8.8-17.4-12-26.9-7.4c-9.7,4.8-20.8,5.9-31.3,3.1l-24.3-6.5
			c-7.4-2-14-6-19.2-11.6c-4.4-4.9-8.1-10.3-11-16.2c1.3-6.8,2.3-13.6,3.1-20.5c6.2-6.6,13.3-12.5,20.9-17.4
			c10-6.4,21.6-9.8,33.5-9.8h39.4c16.9,0,33.2,6.1,46,17.2c13.9,12.1,34.9,10.6,47-3.3c12.1-13.9,10.6-34.9-3.3-47
			c-12.5-10.9-31.2-10.9-43.7,0c-12.7,11.1-29.1,17.2-46,17.2h-39.4c-11.9,0-23.5-3.4-33.5-9.7c-7.7-4.9-14.7-10.7-20.9-17.3
			c-0.8-6.9-1.8-13.7-3.1-20.5c2.9-5.9,6.6-11.4,11-16.2c5.2-5.6,11.8-9.6,19.2-11.6l24.3-6.5c10.5-2.8,21.6-1.6,31.3,3.2
			c10.6,5.1,23.3,0.6,28.4-10c5.1-10.6,0.6-23.3-10-28.4c-9.6-4.6-21-1.5-26.9,7.4c-6,9-15.1,15.5-25.5,18.3l-24.2,6.5
			c-7.3,2.1-15.1,2.1-22.4,0c-6.3-2-12.3-4.8-17.8-8.5c-2.3-6.5-4.8-13-7.5-19.3c2.1-8.9,5.3-17.4,9.5-25.5
			c5.5-10.5,13.9-19.2,24.2-25.2l34-19.7c14.7-8.5,31.9-11.3,48.5-8c18,3.6,35.5-8.2,39.1-26.2c3.6-18-8.2-35.5-26.2-39.1
			c-16.3-3.2-32.5,6.1-37.9,21.9c-5.5,16-16.6,29.5-31.3,37.9l-34,19.7c-10.3,5.9-22.1,8.8-34,8.3c-9.1-0.4-18-1.9-26.7-4.5
			c-17.8-24-39.1-45.3-63.2-63.1c-2.7-8.7-4.2-17.7-4.6-26.8c-0.5-11.9,2.4-23.6,8.3-33.9l19.7-34c8.5-14.6,21.9-25.7,37.9-31.2
			c17.4-6,26.7-24.9,20.7-42.3c-6-17.4-24.9-26.7-42.3-20.7c-15.7,5.4-25.1,21.5-21.9,37.8c3.2,16.6,0.3,33.8-8.2,48.5l-19.6,34
			c-5.9,10.3-14.7,18.7-25.2,24.2c-8.1,4.2-16.6,7.4-25.5,9.5c-6.3-2.7-12.8-5.2-19.3-7.5c-3.6-5.5-6.4-11.5-8.4-17.7
			c-2.5-7.2-2.9-15-1.2-22.4l6.5-24.3c2.8-10.5,9.3-19.5,18.3-25.6c9.8-6.6,12.3-19.8,5.8-29.6s-19.8-12.3-29.6-5.8
			c-8.8,5.9-11.9,17.5-7.2,27c4.7,9.7,5.8,20.8,3,31.3l-6.5,24.3c-2,7.4-6,14-11.7,19.1c-4.8,4.5-10.3,8.2-16.2,11.1
			c-6.8-1.3-13.6-2.3-20.5-3.1c-6.6-6.2-12.4-13.2-17.3-20.9c-6.4-10-9.8-21.7-9.8-33.6V82.2c0-16.9,6.1-33.3,17.1-46.1
			c12.1-13.9,10.6-34.9-3.3-47c-5.9-5.2-13.5-8.1-21.4-8.2L529.4-18.8z M586.1,247.8c10.9-0.4,21.8,1.9,31.6,6.8
			c29.5,11.9,45.5,43.8,37.4,74.5c-3.7,14.1-18.1,22.5-32.2,18.8c-2.6-0.7-5-1.7-7.3-3.2c-19.6-12.3-41.8-19.8-64.8-22.1
			c-14.5-1.4-25.1-14.2-23.8-28.7c0.3-3,1.1-5.9,2.4-8.7C539.8,263.1,561.7,248.7,586.1,247.8z M400.6,299.3
			c20.2,0.7,38.7,11.7,49,29c2.8,4.7,1.2,10.8-3.5,13.5c-0.6,0.3-1.2,0.6-1.8,0.8c-29.4,10.1-53.5,31.4-67.2,59.3
			c-2.4,4.9-8.3,6.9-13.2,4.5c-0.6-0.3-1.2-0.7-1.7-1.1c-25.9-20.1-30.5-57.4-10.4-83.3C363.4,307.2,381.6,298.7,400.6,299.3
			L400.6,299.3z M537.5,380.6c3.9,0.1,7.8,0.4,11.7,0.9c25.6,2.4,47.4,19.5,55.9,43.8c14.5,41.2-2.4,86.8-40.2,108.7
			c-22.4,12.9-50.2,11.6-71.2-3.4c-24.6-17.6-40-45.4-41.7-75.6v-0.1c-1.6-27.4,14.1-53,39.2-64c14.6-6.4,30.4-9.8,46.4-9.9V380.6z
			 M712.1,429c5.5-0.2,11,1,16,3.4c40.3,20.2,56.6,69.2,36.4,109.4c-0.3,0.6-0.6,1.1-0.9,1.7C747.9,580,707.6,599,669.4,588
			c-17.5-5-27.6-23.3-22.6-40.8c0.9-3.2,2.3-6.3,4.2-9c16-24.1,26.1-51.6,29.6-80.4C682.6,441.8,696,429.6,712.1,429L712.1,429z
			 M370.3,464c6.9,0,12.7,5.3,13.2,12.1c3.6,50.6,33.9,95.5,79.4,118c6.5,3.2,9.3,11.1,6.1,17.6c-0.7,1.4-1.6,2.7-2.8,3.8
			c-37,34.7-95.1,32.8-129.8-4.2s-32.8-95.1,4.2-129.8c7.2-6.7,15.4-12.3,24.3-16.4C366.7,464.4,368.5,463.9,370.3,464L370.3,464z
			 M548.1,619.4c18.4-0.8,36.9,1.1,54.8,5.8c9.4,2.2,18.2,6.3,25.8,12.2c14.5,11,17.3,31.7,6.2,46.2c-0.6,0.8-1.2,1.5-1.9,2.2
			c-11.2,12.3-26.7,20.1-43.3,21.7c-22.3,4.1-45.4,0.2-65.1-10.9c-7.5-4.3-13.1-11.3-15.5-19.6c-3.3-11.6-2.9-24,1.2-35.3
			c4.3-12,15.2-20.3,27.8-21.6c3.3-0.4,6.6-0.7,9.9-0.9L548.1,619.4z"/>
	</g>
	<path class="st3" d="M700.3,208.3l74.2,55.4c-66.9,73.9-165.6,173.7-288,266.1C275,689.8,112.4,736.9,35.2,753.1
		c90.5-6.3,278.6-34.3,508.8-180.4c133-84.4,236.4-180.7,305.6-252.9l71.2,53.3l59.1-307.2L700.3,208.3z"/>
</g>
<g id="Layer_1">
	<g>
		<path class="st3" d="M695.5,517.9v471.7H911v-567l-56.6-40.9C803.1,431.1,750,476.7,695.5,517.9z"/>
		<path class="st3" d="M376.5,703.2v286.4H592V590c-7.6,4.9-15.3,9.7-23,14.4C501.7,645.8,437.2,678,376.5,703.2z"/>
		<path class="st3" d="M57.6,989.7h215.6v-249c-83.7,26-156.7,38.4-215.5,43.6v205.4H57.6z"/>
	</g>
	<text transform="matrix(1 0 0 1 0 765)" class="st4 st5 st6">Created by Serhii Smirnov</text>
	<text transform="matrix(1 0 0 1 0 770)" class="st4 st5 st6">from the Noun Project</text>
</g>
</svg>
